<svg width="16" height="16" viewBox="0 0 16 16" fill="none" xmlns="http://www.w3.org/2000/svg">
<path d="M6.321 6.016C6.051 5.836 5.155 5.214 5.155 5.214C5.911 4.133 6.908 3.712 8.287 3.712C9.262 3.712 10.09 4.039 10.681 4.66C11.272 5.281 11.609 6.169 11.686 7.304C12.014 7.442 12.3157 7.60333 12.591 7.788C13.7 8.533 14.31 9.648 14.31 10.925C14.31 13.641 12.084 16 8.054 16C4.594 16 1 13.987 1 7.994C1 2.034 4.482 0 8.044 0C9.69 0 13.55 0.243 15 5.036L13.64 5.389C12.516 1.974 10.163 1.43 8.006 1.43C4.441 1.43 2.424 3.601 2.424 8.22C2.424 12.363 4.678 14.563 8.054 14.563C10.831 14.563 12.901 13.12 12.901 11.007C12.901 9.569 11.693 8.88 11.631 8.88C11.395 10.114 10.763 12.19 7.987 12.19C6.369 12.19 4.974 11.072 4.974 9.608C4.974 7.518 6.958 6.761 8.524 6.761C9.11 6.761 9.818 6.801 10.187 6.875C10.187 6.238 9.647 5.147 8.287 5.147C7.037 5.147 6.721 5.552 6.32 6.015L6.321 6.016ZM8.716 8.19C6.676 8.19 6.412 9.06 6.412 9.606C6.412 10.484 7.455 10.774 8.012 10.774C9.032 10.774 10.079 10.492 10.244 8.351C9.74331 8.23419 9.23004 8.1801 8.716 8.19Z" fill="white"/>
</svg>
